<svg id="Layer_1" data-name="Layer 1" xmlns="http://www.w3.org/2000/svg" viewBox="0 0 456.21 617.44"><defs><style>.cls-1{fill:#727270;}.cls-1,.cls-2{fill-rule:evenodd;}.cls-3{font-size:68.45px;font-family:TimeBurner-Bold, TimeBurner;font-weight:700;}.cls-4{fill:none;}</style></defs><path d="M286.7,387.27v1.93h0C286.7,388.56,286.7,387.92,286.7,387.27Z" transform="translate(59.07)"/><path d="M287.52,387.27V390h-1.65v-.83c0-.62,0-1.22,0-1.86v-.05Z" transform="translate(59.07)"/><path d="M287.52,30.84a5.55,5.55,0,0,0-.08-1l.08,13.65V31.72l0-.29A5.82,5.82,0,0,0,287.52,30.84Z" transform="translate(59.07)"/><path d="M285.88,387.27v.05c0,.64,0,1.24,0,1.86V390h1.61c0-.26,0-.53,0-.8,0-.63,0-1.29,0-1.94Z" transform="translate(59.07)"/><path d="M346.22,431.7v-123h-58.7V43.49l-.08-13.65,0-3.93a3,3,0,0,0-3.07-3,2.91,2.91,0,0,0-2,.93,2.68,2.68,0,0,0-2.06-.72,2.89,2.89,0,0,0-2.05.83,2.9,2.9,0,0,0-2.05-.72,3.29,3.29,0,0,0-3.06,3.21l.18,23.49s0,.31,0,.51a4,4,0,0,0,0,.49V309.12H52.39v78.15c0,.65,0,1.31,0,1.94.05,3.22.23,6.44.54,9.56a117.57,117.57,0,0,0,234,0c.28-2.87.46-5.81.52-8.76h-1.61v-.83c0-.62,0-1.22,0-1.86v-.05h1.64v-60H331.9V432.94c0,.21,0,.42,0,.62a7.22,7.22,0,0,0,14.41-.62A5.61,5.61,0,0,0,346.22,431.7Zm-72.93-47.85h-.38v.82a101.06,101.06,0,0,1-1,13.91c-6.83,50.78-50.68,89.06-102,89.06s-95.18-38.28-102-89.06c-.42-3.08-.7-6.25-.83-9.38V327.27H273.29Z" transform="translate(59.07)"/><path d="M54.07,390H52.39v-2.74l1.64.05c0,.63,0,1.24,0,1.86Z" transform="translate(59.07)"/><path class="cls-1" d="M286.47,21.11a5.48,5.48,0,0,0-1.86-.36,5.13,5.13,0,0,0-2.23.5,6.25,6.25,0,0,0-2.24-.55,5.89,5.89,0,0,0-2.18.44,5.82,5.82,0,0,0-2.18-.49,5.4,5.4,0,0,0-1.95.35l6.2-9.49Z" transform="translate(59.07)"/><path class="cls-2" d="M287.63,49.88a3.05,3.05,0,0,1-.11.85V43.49l0,5.86C287.6,49.52,287.58,49.71,287.63,49.88Z" transform="translate(59.07)"/><path d="M331.93,433.56h0v-.62C331.9,433.15,331.91,433.36,331.93,433.56Z" transform="translate(59.07)"/><text class="cls-3" transform="translate(115.24 575.45)">jamedadi</text><line class="cls-4" x1="453.94" x2="456.21" y2="617.44"/></svg>